<svg width="25" height="23" viewBox="0 0 25 23" fill="none" xmlns="http://www.w3.org/2000/svg">
<g id="bi:facebook" clip-path="url(#clip0_32_8)">
<path id="Vector" d="M25.0001 11.5704C25.0001 5.17925 19.4032 -0.00149536 12.5001 -0.00149536C5.59387 -5.78612e-05 -0.00300598 5.17926 -0.00300598 11.5718C-0.00300598 17.3463 4.56887 22.1331 10.5439 23.0014V14.9154H7.37199V11.5718H10.547V9.02026C10.547 6.12082 12.4142 4.51944 15.2689 4.51944C16.6376 4.51944 18.0673 4.74513 18.0673 4.74513V7.59138H16.4907C14.9392 7.59138 14.4548 8.48407 14.4548 9.39975V11.5704H17.9204L17.3673 14.914H14.4532V22.9999C20.4282 22.1317 25.0001 17.3448 25.0001 11.5704Z" fill="#85B6FF"/>
</g>
<defs>
<clipPath id="clip0_32_8">
<rect width="25" height="23" fill="white"/>
</clipPath>
</defs>
</svg>
