<svg width="25" height="23" viewBox="0 0 25 23" fill="none" xmlns="http://www.w3.org/2000/svg">
<g id="Group">
<path id="Vector" d="M17.5212 0H7.43375C5.46269 0.00213477 3.57304 0.724782 2.17941 2.00939C0.785779 3.29399 0.00198493 5.03564 0 6.85219L0 16.149C0.00231634 17.9655 0.786428 19.707 2.1803 20.9914C3.57416 22.2758 5.46394 22.9982 7.435 23H17.5225C19.4936 22.9979 21.3832 22.2752 22.7768 20.9906C24.1705 19.706 24.9543 17.9644 24.9562 16.1478V6.85104C24.9539 5.03449 24.1698 3.29296 22.776 2.00857C21.3821 0.724184 19.4923 0.00182933 17.5212 0ZM22.4463 16.1478C22.4463 16.7439 22.3189 17.3341 22.0714 17.8848C21.8239 18.4355 21.4611 18.9358 21.0038 19.3573C20.5464 19.7788 20.0035 20.1131 19.406 20.3412C18.8084 20.5693 18.168 20.6868 17.5212 20.6868H7.43375C6.12778 20.6864 4.8754 20.2081 3.95206 19.3569C3.02871 18.5057 2.51 17.3514 2.51 16.1478V6.85104C2.51033 5.64744 3.02936 4.49323 3.95294 3.64227C4.87652 2.7913 6.12903 2.31325 7.435 2.31325H17.5225C18.8285 2.31355 20.0808 2.7919 21.0042 3.64308C21.9275 4.49427 22.4463 5.64859 22.4463 6.85219V16.1478Z" fill="#85B6FF"/>
<path id="Vector_2" d="M12.4775 5.55154C10.7668 5.55398 9.12692 6.18145 7.91738 7.29639C6.70783 8.41134 6.02732 9.92279 6.025 11.4994C6.02699 13.0764 6.70753 14.5883 7.91738 15.7036C9.12722 16.8188 10.7676 17.4463 12.4788 17.4484C14.1901 17.4466 15.8308 16.8192 17.0409 15.704C18.2511 14.5887 18.9318 13.0766 18.9338 11.4994C18.9311 9.92239 18.2499 8.41071 17.0396 7.29592C15.8293 6.18113 14.1886 5.55422 12.4775 5.5527V5.55154ZM12.4775 15.1352C11.4316 15.1352 10.4284 14.7522 9.68885 14.0706C8.94925 13.389 8.53375 12.4645 8.53375 11.5006C8.53375 10.5366 8.94925 9.61212 9.68885 8.9305C10.4284 8.24888 11.4316 7.86594 12.4775 7.86594C13.5234 7.86594 14.5266 8.24888 15.2662 8.9305C16.0058 9.61212 16.4213 10.5366 16.4213 11.5006C16.4213 12.4645 16.0058 13.389 15.2662 14.0706C14.5266 14.7522 13.5234 15.1352 12.4775 15.1352Z" fill="#85B6FF"/>
<path id="Vector_3" d="M18.945 7.02154C19.799 7.02154 20.4913 6.38352 20.4913 5.59649C20.4913 4.80946 19.799 4.17145 18.945 4.17145C18.091 4.17145 17.3988 4.80946 17.3988 5.59649C17.3988 6.38352 18.091 7.02154 18.945 7.02154Z" fill="#85B6FF"/>
</g>
</svg>
