<svg width="27" height="23" viewBox="0 0 27 23" fill="none" xmlns="http://www.w3.org/2000/svg">
<g id="logos:twitter" clip-path="url(#clip0_32_20)">
<path id="Vector" d="M27 2.80071C25.989 3.26806 24.9165 3.57483 23.8184 3.71081C24.9622 2.9955 25.8405 1.86277 26.254 0.513148C25.1667 1.1864 23.9771 1.66076 22.7365 1.91571C21.726 0.792449 20.2865 0.0904541 18.6932 0.0904541C15.6339 0.0904541 13.1536 2.67834 13.1536 5.87017C13.1536 6.32323 13.2027 6.76431 13.2971 7.18744C8.69337 6.94632 4.61173 4.64533 1.87956 1.14845C1.40284 2.0021 1.12968 2.99506 1.12968 4.05416C1.12968 6.05945 2.10769 7.82847 3.59395 8.86501C2.71429 8.83626 1.85398 8.58836 1.08485 8.14199C1.08454 8.16621 1.08454 8.19042 1.08454 8.21474C1.08454 11.0151 2.99394 13.3512 5.52793 13.8822C4.71222 14.1137 3.8566 14.1476 3.02643 13.9812C3.73127 16.2775 5.77705 17.9485 8.20093 17.9952C6.30513 19.5454 3.91658 20.4694 1.32142 20.4694C0.874231 20.4694 0.433371 20.442 0 20.3887C2.45141 22.0286 5.36309 22.9855 8.49129 22.9855C18.6803 22.9855 24.2519 14.1782 24.2519 6.54047C24.2519 6.28978 24.2466 6.04052 24.2359 5.79269C25.3203 4.97469 26.2564 3.96151 27 2.80071Z" fill="#55ACEE"/>
</g>
<defs>
<clipPath id="clip0_32_20">
<rect width="27" height="23" fill="white"/>
</clipPath>
</defs>
</svg>
